<?xml version="1.0" encoding="UTF-8" standalone="no"?>
<!-- Created with Inkscape (http://www.inkscape.org/) -->

<svg
   width="210mm"
   height="297mm"
   viewBox="0 0 210 297"
   version="1.1"
   id="svg1"
   inkscape:version="1.4 (e7c3feb1, 2024-10-09)"
   sodipodi:docname="divider.svg"
   xmlns:inkscape="http://www.inkscape.org/namespaces/inkscape"
   xmlns:sodipodi="http://sodipodi.sourceforge.net/DTD/sodipodi-0.dtd"
   xmlns="http://www.w3.org/2000/svg"
   xmlns:svg="http://www.w3.org/2000/svg">
  <sodipodi:namedview
     id="namedview1"
     pagecolor="#ffffff"
     bordercolor="#000000"
     borderopacity="0.25"
     inkscape:showpageshadow="2"
     inkscape:pageopacity="0.0"
     inkscape:pagecheckerboard="0"
     inkscape:deskcolor="#d1d1d1"
     inkscape:document-units="mm"
     inkscape:zoom="0.49955688"
     inkscape:cx="342.30336"
     inkscape:cy="610.54108"
     inkscape:window-width="1440"
     inkscape:window-height="761"
     inkscape:window-x="0"
     inkscape:window-y="25"
     inkscape:window-maximized="0"
     inkscape:current-layer="layer1" />
  <defs
     id="defs1" />
  <g
     inkscape:label="Layer 1"
     inkscape:groupmode="layer"
     id="layer1">
    <g
       id="g3684"
       style="display:inline"
       transform="matrix(0.34794674,0,0,0.34794674,-33.968609,-78.967194)">
			<path
   d="m 329.02,662.867 c 2.469,-1.597 4.308,-3.974 4.432,-6.545 0.145,-2.991 -2.457,-6.125 -6.269,-6.433 -3.084,-0.671 -6.731,0.525 -8.089,3.196 -0.555,1.093 1.158,1.665 2.129,1.08 1.996,-1.202 4.48,-3.166 6.884,-1.329 0.911,0.697 1.375,1.717 1.499,2.732 0.262,2.119 -0.926,4.318 -3.018,5.592 -5.924,3.602 -13.627,-1.271 -15.285,-6.137 -1.744,-5.119 2.099,-10.054 7.391,-12.498 6.166,-2.846 13.504,-1.242 19.398,1.199 0.029,0.014 0.057,0.025 0.085,0.037 -7.263,-1.098 -15.009,0.273 -21.104,3.851 -1.4,0.822 -0.055,2.735 1.361,1.904 8.033,-4.716 18.302,-5.163 26.926,-1.24 4.373,1.99 7.746,4.897 11.865,7.175 4.224,2.337 8.854,4.225 13.807,5.272 7.293,1.542 15.373,1.147 21.926,-1.893 2.566,-1.19 4.844,-2.823 6.662,-4.734 1.816,1.911 4.095,3.544 6.662,4.734 6.553,3.04 14.633,3.435 21.926,1.893 4.953,-1.047 9.582,-2.935 13.807,-5.272 4.119,-2.278 7.492,-5.185 11.865,-7.175 8.623,-3.923 18.893,-3.475 26.926,1.24 1.416,0.831 2.762,-1.082 1.361,-1.904 -6.096,-3.577 -13.842,-4.948 -21.105,-3.851 0.029,-0.012 0.057,-0.023 0.086,-0.037 5.895,-2.441 13.232,-4.045 19.398,-1.199 5.293,2.444 9.135,7.379 7.391,12.498 -1.658,4.866 -9.361,9.738 -15.285,6.137 -2.092,-1.273 -3.279,-3.473 -3.018,-5.592 0.125,-1.016 0.588,-2.035 1.5,-2.732 2.402,-1.837 4.887,0.127 6.883,1.329 0.971,0.585 2.686,0.013 2.129,-1.08 -1.355,-2.672 -5.006,-3.867 -8.088,-3.196 -3.813,0.308 -6.414,3.442 -6.27,6.433 0.123,2.571 1.963,4.948 4.432,6.545 12.369,7.999 31.174,0.548 29.5,-12.592 -0.705,-5.538 -5.598,-10.128 -11.977,-11.909 -7.578,-2.115 -15.576,-1.161 -22.875,1.271 -8.596,2.862 -16.609,7.32 -25.695,9.119 -8.125,1.607 -17.744,0.959 -23.086,-4.858 0,-0.009 -0.699,-1.163 -1.473,-1.047 -2.734,-0.216 -1.137,4.1 -0.689,5.183 0.766,1.859 2.102,3.542 3.832,4.897 3.555,2.789 8.627,4.092 13.502,3.585 1.457,-0.153 2.848,-0.403 4.191,-0.72 -3.205,1.304 -6.648,2.36 -10.137,2.982 -1.07,0.032 -2.176,-0.005 -3.322,-0.126 -6.076,-0.643 -12.135,-3.253 -15.041,-7.839 -2.627,-4.143 -3.389,-9.56 -0.596,-13.811 1.465,-2.229 3.736,-4.621 6.828,-5.422 0.502,-0.129 1.047,-0.225 1.608,-0.291 -3.178,1.588 -4.963,4.783 -2.199,7.79 5.879,6.397 17.354,-1.171 11.145,-7.268 -2.309,-2.268 -6.111,-3.148 -9.75,-3.07 -0.328,0.008 -0.654,0.022 -0.977,0.044 -5.197,0.359 -10.064,2.626 -13.388,5.888 -3.324,-3.262 -8.191,-5.528 -13.388,-5.888 -0.323,-0.022 -0.649,-0.036 -0.978,-0.044 -3.639,-0.078 -7.44,0.803 -9.75,3.07 -6.21,6.097 5.267,13.664 11.145,7.268 2.765,-3.007 0.979,-6.202 -2.199,-7.79 0.563,0.066 1.105,0.162 1.607,0.291 3.092,0.801 5.364,3.193 6.829,5.422 2.793,4.251 2.029,9.668 -0.596,13.811 -2.906,4.586 -8.965,7.195 -15.042,7.839 -1.146,0.121 -2.252,0.158 -3.323,0.126 -3.487,-0.622 -6.931,-1.679 -10.136,-2.982 1.344,0.316 2.734,0.566 4.191,0.72 4.875,0.507 9.947,-0.796 13.503,-3.585 1.73,-1.354 3.066,-3.037 3.831,-4.897 0.446,-1.083 2.045,-5.398 -0.689,-5.183 -0.773,-0.116 -1.473,1.038 -1.473,1.047 -5.343,5.817 -14.961,6.465 -23.085,4.858 -9.087,-1.799 -17.101,-6.257 -25.696,-9.119 -7.3,-2.433 -15.297,-3.387 -22.875,-1.271 -6.378,1.781 -11.272,6.371 -11.977,11.909 -1.675,13.14 17.131,20.591 29.5,12.592 z m 151.527,-23.472 c 6.367,0.417 13.438,2.856 15.637,8.216 1.893,4.613 1.029,10.334 -3.815,13.592 -3.236,2.178 -7.783,3.306 -12.039,2.889 2.438,-0.466 4.721,-1.477 6.502,-3.038 4.232,-3.71 5.107,-8.789 2.934,-13.482 -1.955,-4.222 -6.789,-7.069 -11.99,-8.229 0.915,-0.024 1.839,-0.008 2.771,0.052 z m -47.387,14.672 c -6.744,0.982 -15.088,-1.291 -16.84,-6.744 6.813,5.025 17.246,5.361 25.895,3.01 1.57,-0.428 3.133,-0.934 4.693,-1.492 -4.254,2.383 -8.713,4.49 -13.748,5.226 z m -76.137,-3.734 c 8.649,2.352 19.082,2.016 25.895,-3.01 -1.752,5.453 -10.096,7.727 -16.84,6.744 -5.035,-0.736 -9.495,-2.844 -13.746,-5.227 1.559,0.559 3.121,1.065 4.691,1.493 z m -53.968,-2.723 c 2.199,-5.359 9.27,-7.799 15.637,-8.216 0.931,-0.06 1.854,-0.075 2.771,-0.054 -5.201,1.16 -10.034,4.008 -11.99,8.229 -2.174,4.693 -1.299,9.772 2.935,13.482 1.78,1.562 4.064,2.572 6.501,3.038 -4.256,0.417 -8.803,-0.711 -12.038,-2.889 -4.846,-3.256 -5.709,-8.976 -3.816,-13.59 z"
   id="path3681" />

			<g
   id="g3682">
				<path
   d="m 663.281,654.866 15.154,-1.045 -15.394,-1.143 c 10.422,-2.6 21.125,-14.094 13.092,-22.563 -5.6,-5.904 -13.272,2.031 -8.639,6.262 -0.365,-1.154 -0.672,-4.002 1.004,-4.768 0.979,6.418 12.029,1.703 7.023,10.254 -0.932,-3.758 -5.07,-6.102 -8.723,-3.061 4.344,-0.127 6.858,5.879 4.018,8.211 -0.131,-2.902 -2.854,-5.783 -5.686,-4.342 4.955,4.828 -2.895,8.818 -8.813,9.789 H 525.48 v -3.09 h -2.508 v 3.09 h -1.74 v -3.09 l -1.529,-2.127 -1.711,2.127 v 3.09 h -1.775 v -3.09 h -2.508 v 3.09 h -2.094 v 2.619 h 2.094 v 3.615 h 2.508 v -3.615 h 1.775 v 3.615 l 1.711,2.125 1.529,-2.125 v -3.615 h 1.74 v 3.615 h 2.508 v -3.615 h 131.156 c 5.875,1.058 13.359,4.99 8.494,9.732 2.832,1.441 5.555,-1.438 5.686,-4.342 2.84,2.334 0.326,8.338 -4.018,8.211 3.652,3.041 7.791,0.697 8.723,-3.059 5.006,8.551 -6.045,3.836 -7.023,10.252 -1.676,-0.766 -1.369,-3.613 -1.004,-4.768 -4.633,4.231 3.039,12.166 8.639,6.264 7.972,-8.401 -2.508,-19.788 -12.852,-22.503 z"
   id="path3682" />

			</g>

			<g
   id="g3683">
				<path
   d="m 135.511,654.866 -15.153,-1.045 15.394,-1.143 c -10.421,-2.6 -21.124,-14.094 -13.091,-22.563 5.6,-5.904 13.271,2.031 8.639,6.262 0.364,-1.154 0.672,-4.002 -1.004,-4.768 -0.979,6.418 -12.029,1.703 -7.023,10.254 0.931,-3.758 5.07,-6.102 8.723,-3.061 -4.344,-0.127 -6.857,5.879 -4.019,8.211 0.132,-2.902 2.854,-5.783 5.687,-4.342 -4.955,4.828 2.895,8.818 8.812,9.789 h 130.838 v -3.09 h 2.508 v 3.09 h 1.741 v -3.09 l 1.529,-2.127 1.71,2.127 v 3.09 h 1.775 v -3.09 h 2.508 v 3.09 h 2.095 v 2.619 h -2.095 v 3.615 h -2.508 v -3.615 H 280.8 v 3.615 l -1.71,2.125 -1.529,-2.125 v -3.615 h -1.741 v 3.615 h -2.508 v -3.615 H 142.155 c -5.875,1.058 -13.359,4.99 -8.493,9.732 -2.833,1.441 -5.555,-1.438 -5.687,-4.342 -2.839,2.334 -0.325,8.338 4.019,8.211 -3.652,3.041 -7.792,0.697 -8.723,-3.059 -5.006,8.551 6.045,3.836 7.023,10.252 1.676,-0.766 1.368,-3.613 1.004,-4.768 4.632,4.231 -3.039,12.166 -8.639,6.264 -7.971,-8.401 2.508,-19.788 12.852,-22.503 z"
   id="path3683" />

			</g>

			<path
   d="m 425.867,599.764 c -8.117,9.33 -16.98,5.598 -16.98,5.598 -0.185,6.438 -7.93,5.972 -7.93,5.972 0.373,-1.213 -0.373,-1.773 -0.373,-1.773 l 0.185,-2.146 -1.586,1.669 -1.586,-1.669 0.186,2.146 c 0,0 -0.746,0.56 -0.373,1.773 0,0 -7.744,0.467 -7.931,-5.972 0,0 -8.864,3.732 -16.982,-5.598 0,0 4.199,5.318 3.359,10.264 0,0 4.198,-0.093 4.012,4.665 0,0 5.598,-1.493 7.464,3.079 0,0 4.664,-1.494 5.504,1.399 0,0 4.666,-5.038 5.972,3.731 l 0.373,0.094 0.373,-0.094 c 1.307,-8.769 5.973,-3.731 5.973,-3.731 0.838,-2.894 5.504,-1.399 5.504,-1.399 1.865,-4.572 7.465,-3.079 7.465,-3.079 -0.188,-4.758 4.012,-4.665 4.012,-4.665 -0.838,-4.946 3.359,-10.264 3.359,-10.264 z"
   id="path3684"
   style="display:none" />

		</g>
  </g>
</svg>
